<svg width="266" height="200" viewBox="0 0 266 200" fill="none" xmlns="http://www.w3.org/2000/svg">
<path d="M129.205 193.539L9.97935 123.06C6.18471 120.93 2.92742 117.427 6.62918 115.139L126.286 46.1453C128.084 45.0308 130.811 44.301 132.635 45.3625L257.792 118.031C261.587 120.234 262.27 126.39 258.455 128.599L144.941 193.413C142.556 194.802 139.85 195.544 137.09 195.566C134.33 195.588 131.612 194.89 129.205 193.539Z" fill="#1045FF"/>
<path d="M244.856 109.467L177.925 148.528L102.855 106.256L169.361 67.4205L244.856 109.467Z" fill="#1045FF"/>
<path d="M139.103 148.521C159.119 148.521 175.345 139.061 175.345 127.392C175.345 115.722 159.119 106.262 139.103 106.262C119.088 106.262 102.862 115.722 102.862 127.392C102.862 139.061 119.088 148.521 139.103 148.521Z" stroke="white" stroke-width="2.03" stroke-miterlimit="10"/>
<path d="M162.408 143.565L231.137 102.899L180.831 73.9814L112.269 113.188" stroke="white" stroke-width="2.03" stroke-miterlimit="10"/>
<path opacity="0.32" d="M81.9346 111.918C85.1173 109.687 82.8216 105.253 78.9881 104.615L78.4545 104.526C77.3828 104.347 76.2756 104.57 75.3531 105.143C71.5597 107.504 73.1657 113.399 77.6334 113.399C77.7259 113.399 77.8175 113.402 77.91 113.4C78.3831 113.393 80.0176 113.261 81.9346 111.918Z" fill="url(#paint0_linear_1313_14547)"/>
<path d="M78.2326 107.642C78.3984 107.596 78.5643 107.563 78.7235 107.516C77.5408 105.434 77.2307 102.967 77.861 100.657C76.674 100.94 75.6148 101.61 74.8498 102.561C74.0849 103.512 73.6577 104.691 73.6352 105.911C75.2207 105.971 77.5161 106.209 78.2326 107.642Z" fill="#FB9328"/>
<path d="M79.4201 107.297C79.7783 107.165 80.1233 107.012 80.4682 106.853C79.692 105.082 81.7353 103.131 82.2196 101.546C82.234 101.493 82.2617 101.444 82.3 101.405C82.3383 101.365 82.3859 101.336 82.4385 101.32C81.5163 100.776 80.4645 100.489 79.3935 100.491C79.1474 100.492 78.9014 100.507 78.6571 100.537C78.3086 101.656 78.1965 102.834 78.3278 103.998C78.4591 105.161 78.8311 106.285 79.4201 107.297Z" fill="#FB9328"/>
<path d="M81.5297 107.098C82.2793 107.762 83.7653 107.569 84.9661 107.238C85.2193 106.342 85.2193 105.394 84.9661 104.498C83.9639 105.539 82.8043 106.417 81.5297 107.098Z" fill="#FB9328"/>
<path d="M81.0718 106.004C81.083 106.173 81.1164 106.341 81.1713 106.501C82.4951 105.796 83.6887 104.869 84.7006 103.762C84.3082 102.921 83.7105 102.193 82.9625 101.645C82.9658 101.672 82.9658 101.698 82.9625 101.725C82.4782 103.131 80.9524 104.451 81.0718 106.004Z" fill="#FB9328"/>
<path d="M77.4564 107.841C77.3979 107.762 77.3336 107.686 77.264 107.616C76.3883 106.753 74.9355 106.654 73.6816 106.621C73.7518 107.137 73.8994 107.641 74.1195 108.113C75.2386 108.156 76.3589 108.065 77.4564 107.841Z" fill="#FB9328"/>
<path d="M80.8397 107.443C80.5014 107.603 80.1763 107.755 79.7982 107.894C80.5307 108.921 81.4625 109.79 82.538 110.449C83.468 109.881 84.2108 109.053 84.6741 108.067C83.2876 108.399 81.7353 108.458 80.8397 107.443Z" fill="#FB9328"/>
<path d="M79.0817 108.14C78.8561 108.213 78.6239 108.259 78.4183 108.326C78.5311 109.473 77.4232 110.123 76.2291 110.468C77.0672 110.984 78.0188 111.286 79.0006 111.348C79.9825 111.41 80.9646 111.231 81.8613 110.827C80.7703 110.119 79.8264 109.206 79.0817 108.14Z" fill="#FB9328"/>
<path d="M77.7018 108.511C76.6595 108.733 75.5962 108.839 74.5308 108.83C74.7958 109.234 75.1125 109.602 75.4728 109.925C76.4944 109.666 77.6355 109.215 77.7018 108.511Z" fill="#FB9328"/>
<path d="M81.5297 107.098C82.7958 106.41 83.9463 105.529 84.9395 104.485C84.8681 104.228 84.7771 103.978 84.6675 103.735C83.6556 104.842 82.462 105.769 81.1383 106.475C81.094 106.31 81.0717 106.141 81.0719 105.971C80.979 104.445 82.5048 103.125 82.956 101.705C82.9593 101.679 82.9593 101.652 82.956 101.625C82.7938 101.506 82.6255 101.395 82.4518 101.294C82.3992 101.31 82.3515 101.339 82.3132 101.378C82.275 101.418 82.2473 101.466 82.2329 101.519C81.7486 103.125 79.7053 105.082 80.4815 106.826C80.1365 106.986 79.8181 107.138 79.4333 107.271C78.8397 106.254 78.4652 105.125 78.3338 103.955C78.2024 102.785 78.3171 101.601 78.6704 100.478C78.3997 100.51 78.1315 100.561 77.8677 100.63C77.2374 102.941 77.5475 105.407 78.7301 107.49C78.5709 107.536 78.3984 107.569 78.2392 107.616C77.5294 106.183 75.234 105.971 73.6418 105.891C73.6436 106.126 73.6613 106.361 73.6949 106.594C74.9487 106.594 76.4016 106.727 77.2773 107.589C77.3469 107.66 77.4112 107.735 77.4697 107.815C76.3787 108.036 75.2652 108.128 74.1527 108.087C74.269 108.336 74.4042 108.575 74.5573 108.803C75.6228 108.813 76.6861 108.706 77.7284 108.485C77.662 109.188 76.521 109.633 75.4994 109.878C75.736 110.082 75.989 110.266 76.2556 110.429C77.4498 110.084 78.5576 109.434 78.4448 108.286C78.677 108.226 78.9092 108.173 79.1082 108.1C79.8412 109.163 80.7713 110.075 81.8481 110.787C82.0931 110.677 82.3303 110.551 82.5579 110.409C81.4824 109.75 80.5506 108.881 79.8181 107.855C80.1697 107.722 80.4815 107.569 80.8596 107.404C81.7486 108.419 83.3009 108.359 84.6941 108.027C84.8142 107.762 84.9118 107.486 84.986 107.205C83.7653 107.569 82.2859 107.775 81.5297 107.098Z" fill="#641300"/>
<path opacity="0.3" d="M83.825 102.428C84.3027 105.745 82.2926 109.36 77.8014 109.36C76.5501 109.387 75.3193 109.04 74.2654 108.365C74.7703 109.283 75.5144 110.046 76.4186 110.574C77.3228 111.102 78.3531 111.375 79.4001 111.364C80.8877 111.403 82.3299 110.85 83.4097 109.826C84.4895 108.802 85.1185 107.392 85.1584 105.904C85.1526 104.622 84.6784 103.385 83.825 102.428Z" fill="#CC5F1F"/>
<path opacity="0.32" d="M205.523 106.893L167.165 94.7791L145.505 106.528L168.021 131.916C168.021 131.916 198.385 110.973 205.523 106.893Z" fill="url(#paint1_linear_1313_14547)"/>
<path d="M212.906 102.614V99.0713L208.574 98.9983L168.021 92.1255V95.668" fill="#2E1920"/>
<path d="M212.906 102.634L184.944 85.916L168.021 95.6879L196.481 112.12L212.906 102.634Z" fill="#2E1920"/>
<path d="M212.906 99.0911L184.944 82.3801L168.021 92.1454L196.481 108.578L212.906 99.0911Z" fill="#412E32"/>
<path d="M182.967 31.0331L192.222 97.1872L189.409 95.0577L180.413 30.6417L182.967 31.0331Z" fill="#412E32"/>
<path d="M176.327 32.4395L185.408 27.4043C184.665 26.7807 182.861 25.2748 180.685 25.8586L175 28.8904" fill="#412E32"/>
<path d="M185.8 28.2402C185.759 27.9826 185.658 27.7384 185.505 27.5274C185.352 27.3164 185.151 27.1447 184.918 27.0262C184.686 26.9078 184.429 26.8461 184.168 26.8461C183.908 26.8461 183.651 26.9078 183.418 27.0261L177.541 30.1905V34.224L182.961 31.0065L192.248 97.1606L196.162 95.6149L185.8 28.2402Z" fill="#2E1920"/>
<path d="M144.616 37.8528L170.237 52.5271L170.774 53.4493L177.514 57.9272L179.259 57.695V24.8435L144.616 4.68945L142.885 4.92164L144.616 7.95338V37.8528Z" fill="#1045FF"/>
<path d="M144.616 37.8528L170.237 52.5271L170.774 53.4493L177.514 57.9272L179.259 57.695V24.8435L144.616 4.68945L142.885 4.92164L144.616 7.95338V37.8528Z" fill="#1045FF"/>
<path d="M142.885 4.92175V38.0851L177.514 57.9273V25.0758L142.885 4.92175Z" fill="#33B0FF"/>
<path d="M144.616 8.37134V36.924L175.026 54.0065V25.7325L144.616 8.37134Z" fill="#F8F8FA"/>
<path d="M149.837 19.9078V32.4527L169.819 43.6973V31.1856L149.837 19.9078Z" stroke="#1045FF" stroke-width="1.015" stroke-miterlimit="10"/>
<path d="M155.947 32.6584V34.5624L161.108 36.8113L162.886 35.5973V33.4479" fill="#874639"/>
<path d="M159.536 35.3451L162.893 33.4876L158.249 30.9468L155.264 32.4925C156.518 32.7407 157.671 33.352 158.581 34.2505L158.66 34.3301C158.996 34.6282 159.29 34.9695 159.536 35.3451Z" fill="#641300"/>
<path d="M143.521 40.5594C143.967 44.214 144.6 47.8432 145.419 51.4325C145.446 51.5346 145.513 51.6216 145.604 51.6745C145.696 51.7274 145.804 51.7418 145.906 51.7145C146.008 51.6872 146.095 51.6205 146.148 51.5291C146.201 51.4376 146.216 51.3289 146.188 51.2269V51.1406C146.884 51.5353 147.636 51.8217 148.417 51.9898L148.802 53.2702C148.825 53.3599 148.878 53.4388 148.953 53.4928C149.028 53.5469 149.12 53.5726 149.212 53.5655C149.304 53.5583 149.391 53.5187 149.457 53.4538C149.523 53.3888 149.563 53.3026 149.572 53.2105L149.777 52.2485C150.546 52.3445 151.318 52.3976 152.093 52.4077C152.192 52.8323 152.292 53.2569 152.404 53.6748C152.432 53.7769 152.498 53.8639 152.59 53.9168C152.681 53.9697 152.79 53.984 152.892 53.9568C152.994 53.9295 153.081 53.8628 153.134 53.7714C153.187 53.6799 153.201 53.5712 153.174 53.4692V53.4227C153.287 53.091 153.393 52.7593 153.499 52.421C154.314 52.3819 155.122 52.2506 155.907 52.0296C155.967 52.6001 156.033 53.1773 156.08 53.7478C156.089 53.8198 156.118 53.8879 156.162 53.9455C156.206 54.0031 156.265 54.0482 156.332 54.0763C156.399 54.1045 156.472 54.1147 156.544 54.1059C156.616 54.0972 156.685 54.0698 156.743 54.0264C156.793 54.0045 156.837 53.9717 156.873 53.9304C156.909 53.889 156.934 53.8403 156.949 53.7876C157.201 52.965 157.433 52.1291 157.659 51.2932C157.864 51.1731 158.063 51.0424 158.256 50.9018C158.272 50.9916 158.32 51.0728 158.39 51.1311C158.461 51.1895 158.549 51.2215 158.64 51.2215C158.732 51.2215 158.82 51.1895 158.89 51.1311C158.961 51.0728 159.008 50.9916 159.025 50.9018C159.946 47.9916 160.686 45.0271 161.241 42.0256C161.301 41.5413 160.577 41.3622 160.471 41.8199C160.365 42.2776 160.299 42.7089 160.206 43.1467C160.137 43.1584 160.073 43.1882 160.02 43.2329C159.738 43.4559 159.433 43.6493 159.111 43.8101C159.164 43.432 159.218 43.1467 159.271 42.6624C159.324 42.1781 158.554 42.1251 158.501 42.6624C158.448 43.1998 158.375 43.704 158.302 44.2081C157.408 44.5248 156.483 44.7471 155.542 44.8715C155.481 44.6895 155.445 44.4996 155.436 44.3076C155.473 44.1615 155.5 44.013 155.516 43.8632C155.529 43.7699 155.51 43.6749 155.462 43.5939C155.413 43.513 155.339 43.4512 155.25 43.4187L155.197 43.1666C155.17 43.0646 155.103 42.9775 155.012 42.9246C154.92 42.8718 154.812 42.8574 154.71 42.8847C154.608 42.9119 154.521 42.9786 154.468 43.0701C154.415 43.1615 154.4 43.2702 154.428 43.3723C154.54 43.6793 154.607 44.0011 154.627 44.3275C154.587 44.5531 154.534 44.772 154.494 44.9909C153.592 45.0838 152.749 45.1369 151.98 45.1833H151.21C151.263 44.8715 151.336 44.5664 151.389 44.2546C151.398 44.19 151.392 44.1242 151.371 44.0625C151.35 44.0008 151.315 43.9448 151.269 43.899C151.223 43.8533 151.166 43.819 151.104 43.7989C151.042 43.7789 150.976 43.7736 150.912 43.7836L150.872 43.5978C150.746 43.1135 150.003 43.3457 150.102 43.8035L150.401 45.19C149.266 45.1722 148.135 45.0456 147.024 44.8118L146.095 41.727C146.082 41.6765 146.059 41.6291 146.027 41.5876C145.995 41.5461 145.955 41.5112 145.91 41.4851C145.865 41.4589 145.815 41.4419 145.763 41.435C145.711 41.4282 145.658 41.4316 145.608 41.4451C145.557 41.4586 145.51 41.4819 145.468 41.5137C145.427 41.5455 145.392 41.5852 145.366 41.6305C145.34 41.6758 145.323 41.7258 145.316 41.7776C145.309 41.8295 145.312 41.8821 145.326 41.9327L146.095 44.5863C145.653 44.4669 145.224 44.3298 144.808 44.175C144.616 42.9742 144.437 41.7668 144.291 40.5594C144.231 40.0619 143.462 40.0619 143.521 40.5594ZM150.587 47.8568H150.912L151.283 49.449H150.248L150.587 47.8568ZM147.21 45.6013C148.194 45.7759 149.19 45.8713 150.189 45.8865C150.109 46.2315 150.043 46.6362 149.963 47.0077C149.133 46.9487 148.31 46.8065 147.509 46.5831L147.19 45.6013H147.21ZM154.249 45.6676C154.182 46.059 154.109 46.4438 154.023 46.8352C153.202 46.9704 152.373 47.0502 151.542 47.074L151.277 45.9064C151.958 45.9064 152.637 45.86 153.313 45.7671L154.249 45.6676ZM154.706 47.4721L155.164 47.3792C155.25 47.9099 155.337 48.4141 155.41 48.9249C155.051 48.9957 154.691 49.0598 154.328 49.1173C154.441 48.5998 154.554 48.0558 154.7 47.492L154.706 47.4721ZM159.689 44.9644L159.629 45.0307C159.363 45.1701 159.098 45.3094 158.813 45.4421C158.869 45.1888 158.904 44.9314 158.919 44.6725C159.264 44.5248 159.597 44.3496 159.914 44.1484L159.728 44.971L159.689 44.9644ZM159.025 47.5583C158.797 47.7158 158.56 47.8598 158.315 47.9895C158.428 47.4389 158.521 46.8883 158.627 46.3376C158.919 46.2138 159.202 46.0856 159.476 45.9529C159.344 46.4836 159.224 47.0276 159.078 47.5583H159.032H159.025ZM158.362 49.6613C158.202 49.8231 158.034 49.9759 157.858 50.119C157.95 49.6944 158.037 49.3229 158.13 48.9249C158.356 48.8322 158.577 48.7282 158.793 48.6131C158.707 48.9315 158.614 49.2765 158.521 49.5684C158.482 49.5846 158.446 49.607 158.415 49.6347L158.362 49.6613ZM156.418 50.9284C156.365 50.4374 156.285 49.993 156.265 49.5352C156.604 49.449 156.929 49.3561 157.26 49.25C157.148 49.7342 157.028 50.2318 156.909 50.7161C156.763 50.7957 156.617 50.8687 156.471 50.935L156.418 50.9284ZM156.119 48.7524C156.04 48.2416 155.96 47.744 155.92 47.2332C156.558 47.0731 157.187 46.8804 157.804 46.6561C157.698 47.2266 157.599 47.7905 157.473 48.3544C157.038 48.5122 156.595 48.6451 156.146 48.7524H156.119ZM155.755 46.5367C155.701 46.2116 155.629 45.8733 155.569 45.5615C156.413 45.4526 157.248 45.2751 158.063 45.0307C158.017 45.2629 157.977 45.5349 157.931 45.8003C157.222 46.1002 156.495 46.355 155.755 46.5632V46.5367ZM155.688 51.1805C155.021 51.3786 154.333 51.5032 153.638 51.552C153.798 51.0146 153.95 50.464 154.096 49.9134C154.56 49.847 155.031 49.7674 155.502 49.6745C155.569 50.1787 155.642 50.6763 155.701 51.1805H155.688ZM152.603 51.5719L152.239 50.1854H152.351L153.22 50.0925C153.074 50.5834 152.922 51.1141 152.756 51.6382H152.577L152.603 51.5719ZM152.079 49.3495C151.953 48.8652 151.847 48.3146 151.741 47.8369C152.449 47.8121 153.156 47.7479 153.857 47.6445C153.731 48.1753 153.612 48.706 153.472 49.2367L152.384 49.3627H152.086L152.079 49.3495ZM151.801 51.5652C151.204 51.5652 150.534 51.5055 149.857 51.4392C149.95 51.0146 150.036 50.59 150.122 50.1655C150.578 50.1898 151.034 50.1898 151.489 50.1655C151.595 50.6365 151.695 51.1075 151.814 51.5719L151.801 51.5652ZM148.57 49.92C148.821 49.9934 149.079 50.0379 149.339 50.0527C149.253 50.464 149.18 50.8687 149.094 51.28H148.922L148.57 49.92ZM149.499 49.3097C149.09 49.2688 148.685 49.2023 148.285 49.1107L147.794 47.4588C148.464 47.6166 149.144 47.7231 149.83 47.7772L149.505 49.3229L149.499 49.3097ZM145.85 49.9731C145.79 49.6082 145.717 49.2433 145.651 48.8851C146.296 49.2412 146.976 49.5281 147.681 49.7409L148.092 51.0677C147.276 50.8781 146.518 50.4934 145.883 49.9465L145.85 49.9731ZM145.472 47.9829C145.372 47.4721 145.293 46.9546 145.207 46.404C145.752 46.7363 146.33 47.0119 146.931 47.2266L147.422 48.8519C146.849 48.6472 146.296 48.3895 145.77 48.0824C145.73 48.0575 145.685 48.0411 145.639 48.0342C145.592 48.0274 145.544 48.0302 145.498 48.0426L145.472 47.9829ZM145.366 45.6543C145.32 45.633 145.27 45.6219 145.22 45.6219C145.169 45.6219 145.12 45.633 145.074 45.6543C145.025 45.4359 144.991 45.2142 144.974 44.9909C145.439 45.1435 145.91 45.2828 146.381 45.4022L146.646 46.2713C146.209 46.1044 145.787 45.9002 145.386 45.661L145.366 45.6543Z" fill="#FB9328"/>
<path d="M143.17 38.5693C143.156 38.6236 143.153 38.6802 143.162 38.7356C143.17 38.791 143.19 38.8442 143.219 38.8919C143.249 38.9396 143.287 38.981 143.333 39.0134C143.379 39.0459 143.43 39.0688 143.485 39.0808C143.54 39.0928 143.597 39.0937 143.652 39.0834C143.707 39.0731 143.759 39.0518 143.806 39.0208C143.853 38.9897 143.893 38.9496 143.924 38.9029C143.955 38.8561 143.976 38.8035 143.986 38.7484C144.145 38.4104 144.417 38.1384 144.755 37.9789C145.012 38.6865 145.255 39.4007 145.485 40.1216L144.822 40.3737C144.364 40.5794 144.57 41.329 145.027 41.1433L145.691 40.8779C145.83 41.3158 145.963 41.7669 146.082 42.2047C146.082 42.3068 146.123 42.4046 146.195 42.4768C146.267 42.5489 146.365 42.5895 146.467 42.5895C146.569 42.5895 146.667 42.5489 146.739 42.4768C146.811 42.4046 146.852 42.3068 146.852 42.2047L147.223 40.3605C147.897 40.1531 148.581 39.9826 149.273 39.8496C149.616 40.8486 149.81 41.8924 149.85 42.9477C149.836 43.0016 149.833 43.0579 149.842 43.1129C149.851 43.1679 149.872 43.2204 149.903 43.2667C149.934 43.313 149.975 43.3522 150.022 43.3815C150.07 43.4109 150.123 43.4298 150.178 43.4369C150.234 43.4441 150.29 43.4393 150.343 43.423C150.396 43.4067 150.446 43.3791 150.487 43.3422C150.529 43.3053 150.563 43.2599 150.586 43.209C150.608 43.1582 150.62 43.103 150.62 43.0472L151.575 39.5577C152.046 39.5179 152.517 39.5179 152.988 39.5179L153.353 42.8349C153.406 43.2263 154.056 43.3988 154.123 42.9344C154.307 41.8167 154.598 40.7193 154.992 39.6573C155.742 39.7671 156.483 39.9357 157.207 40.1614C157.264 40.7323 157.286 41.3061 157.274 41.8796C157.259 41.9335 157.257 41.9898 157.266 42.0449C157.275 42.0999 157.296 42.1523 157.327 42.1986C157.358 42.2449 157.398 42.2841 157.446 42.3134C157.493 42.3428 157.546 42.3617 157.602 42.3688C157.657 42.376 157.713 42.3712 157.767 42.3549C157.82 42.3386 157.869 42.311 157.911 42.2741C157.953 42.2372 157.986 42.1918 158.009 42.141C158.032 42.0901 158.044 42.0349 158.043 41.9791L158.455 40.6059L159.158 40.9177C159.596 41.1366 159.994 40.4732 159.543 40.2543C159.255 40.1172 158.968 39.989 158.68 39.8695L159.344 37.7467C159.981 38.0609 160.599 38.4131 161.194 38.8015C161.579 39.0801 161.997 38.4101 161.579 38.1381C160.941 37.7179 160.276 37.3389 159.589 37.0037L159.961 35.7565C159.974 35.7059 159.977 35.6532 159.971 35.6014C159.964 35.5495 159.947 35.4996 159.921 35.4543C159.894 35.409 159.859 35.3693 159.818 35.3375C159.776 35.3057 159.729 35.2824 159.679 35.2689C159.628 35.2554 159.575 35.2519 159.523 35.2588C159.472 35.2657 159.422 35.2827 159.376 35.3089C159.331 35.335 159.291 35.3699 159.26 35.4114C159.228 35.4529 159.204 35.5003 159.191 35.5508L158.859 36.6786C158.444 36.4973 158.021 36.3358 157.592 36.1943C157.479 35.4513 157.347 34.7547 157.181 33.9786C157.151 33.9004 157.099 33.8331 157.03 33.7856C156.961 33.738 156.88 33.7126 156.796 33.7126C156.713 33.7126 156.631 33.738 156.562 33.7856C156.493 33.8331 156.441 33.9004 156.411 33.9786C156.212 34.5557 155.993 35.1262 155.748 35.6968C154.955 35.5246 154.15 35.4137 153.34 35.3651L153.167 33.8193C153.182 33.7655 153.184 33.7091 153.175 33.6541C153.166 33.5991 153.145 33.5467 153.114 33.5004C153.083 33.454 153.043 33.4149 152.995 33.3855C152.948 33.3562 152.895 33.3373 152.839 33.3301C152.784 33.323 152.728 33.3277 152.675 33.3441C152.621 33.3604 152.572 33.3879 152.53 33.4248C152.488 33.4617 152.455 33.5071 152.432 33.558C152.409 33.6089 152.398 33.6641 152.398 33.7198L151.94 35.3717C151.63 35.4105 151.317 35.426 151.005 35.4181C150.261 35.4894 149.523 35.6113 148.796 35.783C148.654 35.3009 148.539 34.8115 148.451 34.3169C148.451 34.2148 148.41 34.117 148.338 34.0448C148.266 33.9727 148.168 33.9321 148.066 33.9321C147.964 33.9321 147.866 33.9727 147.794 34.0448C147.722 34.117 147.681 34.2148 147.681 34.3169L147.303 36.1943C146.865 36.3403 146.434 36.5061 145.976 36.6852L145.207 36.997C145.034 36.5393 144.888 36.0815 144.676 35.6238C144.464 35.166 143.721 35.3717 143.906 35.8294C144.092 36.2872 144.298 36.8046 144.483 37.3155C144.191 37.4206 143.923 37.5834 143.695 37.7943C143.467 38.0051 143.284 38.2597 143.157 38.5427L143.17 38.5693ZM151.661 36.1479L150.912 38.8346C150.531 38.87 150.151 38.9187 149.771 38.9806C149.499 38.158 149.207 37.3354 148.948 36.5194C149.84 36.3148 150.748 36.1905 151.661 36.1479ZM153.32 36.1479C153.989 36.1981 154.654 36.2934 155.31 36.4331L154.348 38.8413L153.579 38.7749L153.293 36.1611L153.32 36.1479ZM157.831 39.6174C157.771 38.7617 157.672 37.9125 157.552 37.0634C157.866 37.1784 158.176 37.3022 158.481 37.4349L157.831 39.6174ZM157.042 39.3521C156.423 39.167 155.794 39.0208 155.157 38.9142C155.456 38.1447 155.781 37.3685 156.1 36.599L156.763 36.7847C156.887 37.6383 156.984 38.4963 157.055 39.3587L157.042 39.3521ZM154.109 39.5776C153.994 39.9005 153.886 40.2256 153.784 40.5528L153.678 39.5445L154.109 39.5776ZM152.822 38.7351C152.448 38.7237 152.073 38.7392 151.701 38.7816L152.431 36.128H152.53L152.816 38.7816L152.822 38.7351ZM150.315 40.9575C150.222 40.5462 150.116 40.1349 149.99 39.7435L150.653 39.6506L150.282 40.9774L150.315 40.9575ZM148.988 39.1066C148.442 39.2093 147.902 39.3399 147.369 39.498L147.893 36.7914L148.092 36.7383H148.172C148.437 37.541 148.729 38.3769 148.988 39.1464V39.1066ZM146.162 39.8695C145.936 39.1177 145.68 38.388 145.392 37.6803C145.936 37.4489 146.492 37.2473 147.057 37.0766L146.507 39.7966L146.162 39.9093V39.8695Z" fill="#FB9328"/>
<path d="M152.312 43.3856C157.518 43.3856 161.738 40.9976 161.738 38.0519C161.738 35.1061 157.518 32.7181 152.312 32.7181C147.105 32.7181 142.885 35.1061 142.885 38.0519C142.885 40.9976 147.105 43.3856 152.312 43.3856Z" stroke="#070928" stroke-width="2.03" stroke-miterlimit="10"/>
<defs>
<linearGradient id="paint0_linear_1313_14547" x1="27038.1" y1="3401.16" x2="26846.8" y2="3178.17" gradientUnits="userSpaceOnUse">
<stop offset="0.01" stop-color="#666666" stop-opacity="0"/>
<stop offset="1" stop-color="#1A1A1A"/>
</linearGradient>
<linearGradient id="paint1_linear_1313_14547" x1="66817.9" y1="6531" x2="65573.5" y2="5076.74" gradientUnits="userSpaceOnUse">
<stop offset="0.01" stop-color="#666666" stop-opacity="0"/>
<stop offset="1" stop-color="#1A1A1A"/>
</linearGradient>
</defs>
</svg>
