<svg width="172" height="85" viewBox="0 0 172 85" fill="none" xmlns="http://www.w3.org/2000/svg">
<path fill-rule="evenodd" clip-rule="evenodd" d="M67.6904 39.7486C85.4876 50.0232 101.521 49.8145 111.634 43.9768C121.746 38.1391 122.107 28.8829 104.31 18.6083C86.5122 8.33405 70.4787 8.54273 60.3665 14.3804C50.2544 20.2181 49.893 29.4743 67.6904 39.7486ZM76.6894 34.5548C85.8422 39.8388 94.0882 39.7315 99.2886 36.7292C104.489 33.727 104.675 28.9667 95.5222 23.6826C86.3691 18.3986 78.1234 18.506 72.9227 21.5082C67.7223 24.5104 67.5363 29.2708 76.6894 34.5548Z" fill="#33B0FF"/>
<path fill-rule="evenodd" clip-rule="evenodd" d="M67.6904 34.5701C85.4876 44.8444 101.521 44.636 111.634 38.7981C121.746 32.9604 122.107 23.7041 104.31 13.4298C86.5122 3.1554 70.4787 3.36402 60.3665 9.20167C50.2544 15.0396 49.893 24.2956 67.6904 34.5701ZM76.6894 29.3756C85.8422 34.6596 94.0882 34.5523 99.2886 31.5501C104.489 28.5477 104.675 23.7875 95.5222 18.5035C86.3691 13.2195 78.1234 13.3268 72.9227 16.329C67.7223 19.3313 67.5363 24.0916 76.6894 29.3756Z" fill="#217DFF"/>
<path fill-rule="evenodd" clip-rule="evenodd" d="M67.6904 29.3916C85.4876 39.6659 101.521 39.4574 111.634 33.6197C121.746 27.7819 122.107 18.5258 104.31 8.2513C86.5122 -2.0231 70.4787 -1.81446 60.3665 4.02316C50.2544 9.86105 49.893 19.1173 67.6904 29.3916ZM76.6894 24.1967C85.8422 29.4807 94.0882 29.3734 99.2886 26.3712C104.489 23.3687 104.675 18.6086 95.5222 13.3246C86.3691 8.04058 78.1234 8.14788 72.9227 11.1501C67.7223 14.1523 67.5363 18.9127 76.6894 24.1967Z" fill="#1045FF"/>
<path d="M15.9812 66.6752V64.4096H20.9348V83.6096H15.9812V81.344C14.4964 83.2128 12.41 84.1472 9.72199 84.1472C7.16203 84.1472 4.96038 83.1744 3.11718 81.2288C1.29954 79.2576 0.390778 76.8512 0.390778 74.0096C0.390778 71.1936 1.29954 68.8 3.11718 66.8288C4.96038 64.8576 7.16203 63.872 9.72199 63.872C12.41 63.872 14.4964 64.8064 15.9812 66.6752ZM6.84198 77.9264C7.84038 78.9248 9.10759 79.424 10.6436 79.424C12.1796 79.424 13.4468 78.9248 14.4452 77.9264C15.4692 76.9024 15.9812 75.5968 15.9812 74.0096C15.9812 72.4224 15.4692 71.1296 14.4452 70.1312C13.4468 69.1072 12.1796 68.5952 10.6436 68.5952C9.10759 68.5952 7.84038 69.1072 6.84198 70.1312C5.84358 71.1296 5.34438 72.4224 5.34438 74.0096C5.34438 75.5968 5.84358 76.9024 6.84198 77.9264ZM30.3804 64.4096V67.712C30.8155 66.5088 31.5579 65.6 32.6076 64.9856C33.6571 64.3456 34.8603 64.0256 36.2172 64.0256V69.5552C34.7067 69.3504 33.3499 69.6576 32.1468 70.4768C30.9691 71.2704 30.3804 72.5888 30.3804 74.432V83.6096H25.4268V64.4096H30.3804ZM57.0642 76.0448H42.5874C43.2273 78.4512 45.0321 79.6544 48.0018 79.6544C49.8961 79.6544 51.3298 79.0144 52.3026 77.7344L56.2962 80.0384C54.4018 82.7776 51.6114 84.1472 47.925 84.1472C44.7505 84.1472 42.2034 83.1872 40.2834 81.2672C38.3634 79.3472 37.4033 76.928 37.4033 74.0096C37.4033 71.1424 38.3505 68.736 40.245 66.7904C42.1137 64.8448 44.5458 63.872 47.541 63.872C50.3826 63.872 52.6993 64.8448 54.4914 66.7904C56.3346 68.736 57.2562 71.1424 57.2562 74.0096C57.2562 74.5472 57.1921 75.2256 57.0642 76.0448ZM42.5106 72.2048H52.3026C52.021 70.9504 51.445 69.9904 50.5746 69.3248C49.7298 68.6592 48.7185 68.3264 47.541 68.3264C46.2097 68.3264 45.1089 68.672 44.2386 69.3632C43.3681 70.0288 42.7921 70.976 42.5106 72.2048ZM71.3901 63.872C73.5141 63.872 75.2421 64.576 76.5741 65.984C77.9565 67.4176 78.6477 69.3632 78.6477 71.8208V83.6096H73.6941V72.4352C73.6941 71.1808 73.3485 70.208 72.6573 69.5168C71.9913 68.8256 71.0696 68.48 69.8924 68.48C68.5868 68.48 67.55 68.8896 66.7814 69.7088C66.039 70.5024 65.6678 71.68 65.6678 73.2416V83.6096H60.7142V64.4096H65.6678V66.56C66.8454 64.768 68.7524 63.872 71.3901 63.872ZM97.4685 66.6752V64.4096H102.422V83.6096H97.4685V81.344C95.9841 83.2128 93.8973 84.1472 91.2093 84.1472C88.6497 84.1472 86.4477 83.1744 84.6045 81.2288C82.7877 79.2576 81.8781 76.8512 81.8781 74.0096C81.8781 71.1936 82.7877 68.8 84.6045 66.8288C86.4477 64.8576 88.6497 63.872 91.2093 63.872C93.8973 63.872 95.9841 64.8064 97.4685 66.6752ZM88.3293 77.9264C89.3277 78.9248 90.5949 79.424 92.1309 79.424C93.6669 79.424 94.9341 78.9248 95.9325 77.9264C96.9573 76.9024 97.4685 75.5968 97.4685 74.0096C97.4685 72.4224 96.9573 71.1296 95.9325 70.1312C94.9341 69.1072 93.6669 68.5952 92.1309 68.5952C90.5949 68.5952 89.3277 69.1072 88.3293 70.1312C87.3309 71.1296 86.8317 72.4224 86.8317 74.0096C86.8317 75.5968 87.3309 76.9024 88.3293 77.9264Z" fill="#1045FF"/>
<path d="M117.897 64.4096V69.1712H113.558V77.1584C113.558 77.824 113.724 78.3104 114.057 78.6176C114.39 78.9248 114.876 79.1039 115.516 79.1552C116.156 79.1807 116.949 79.168 117.897 79.1168V83.6096C114.543 83.9936 112.149 83.6864 110.717 82.688C109.308 81.664 108.604 79.8208 108.604 77.1584V69.1712H105.264V64.4096H108.604V60.5312L113.558 59.0336V64.4096H117.897ZM123.847 62.1056C123.027 62.1056 122.311 61.8112 121.696 61.2224C121.107 60.608 120.813 59.8912 120.813 59.072C120.813 58.2528 121.107 57.536 121.696 56.9216C122.311 56.3072 123.027 56 123.847 56C124.692 56 125.408 56.3072 125.997 56.9216C126.612 57.536 126.919 58.2528 126.919 59.072C126.919 59.8912 126.612 60.608 125.997 61.2224C125.408 61.8112 124.692 62.1056 123.847 62.1056ZM126.343 83.6096H121.389V64.4096H126.343V83.6096ZM147.235 81.2288C145.29 83.1743 142.884 84.1472 140.016 84.1472C137.149 84.1472 134.743 83.1743 132.796 81.2288C130.851 79.2832 129.878 76.8767 129.878 74.0096C129.878 71.168 130.851 68.7744 132.796 66.8288C134.768 64.8576 137.174 63.872 140.016 63.872C142.857 63.872 145.264 64.8576 147.235 66.8288C149.206 68.8 150.192 71.1935 150.192 74.0096C150.192 76.8512 149.206 79.2575 147.235 81.2288ZM136.291 77.8112C137.289 78.8096 138.531 79.3088 140.016 79.3088C141.501 79.3088 142.742 78.8096 143.74 77.8112C144.739 76.8128 145.238 75.5456 145.238 74.0096C145.238 72.4736 144.739 71.2064 143.74 70.208C142.742 69.2096 141.501 68.7104 140.016 68.7104C138.531 68.7104 137.289 69.2096 136.291 70.208C135.319 71.232 134.832 72.4991 134.832 74.0096C134.832 75.52 135.319 76.7872 136.291 77.8112ZM164.352 63.872C166.477 63.872 168.205 64.576 169.536 65.984C170.918 67.4176 171.609 69.3632 171.609 71.8208V83.6096H166.656V72.4352C166.656 71.1808 166.31 70.208 165.619 69.5168C164.954 68.8256 164.032 68.48 162.854 68.48C161.548 68.48 160.512 68.8896 159.744 69.7088C159.002 70.5024 158.63 71.68 158.63 73.2416V83.6096H153.676V64.4096H158.63V66.56C159.808 64.768 161.715 63.872 164.352 63.872Z" fill="#070928"/>
</svg>
