<svg width="165" height="24" viewBox="0 0 165 24" fill="none" xmlns="http://www.w3.org/2000/svg">
<path d="M46.8433 8.52421V6.82501H50.5585V21.225H46.8433V19.5258C45.7297 20.9274 44.1649 21.6282 42.1489 21.6282C40.2289 21.6282 38.5777 20.8986 37.1953 19.4394C35.832 17.961 35.1505 16.1562 35.1505 14.025C35.1505 11.913 35.832 10.1178 37.1953 8.63941C38.5777 7.16098 40.2289 6.42181 42.1489 6.42181C44.1649 6.42181 45.7297 7.12264 46.8433 8.52421ZM39.9889 16.9626C40.7377 17.7114 41.6881 18.0858 42.8401 18.0858C43.9921 18.0858 44.9425 17.7114 45.6913 16.9626C46.4592 16.1946 46.8433 15.2154 46.8433 14.025C46.8433 12.8346 46.4592 11.865 45.6913 11.1162C44.9425 10.3482 43.9921 9.96421 42.8401 9.96421C41.6881 9.96421 40.7377 10.3482 39.9889 11.1162C39.2401 11.865 38.8657 12.8346 38.8657 14.025C38.8657 15.2154 39.2401 16.1946 39.9889 16.9626ZM57.6426 6.82501V9.30181C57.969 8.39938 58.5258 7.71781 59.313 7.25701C60.1002 6.77704 61.0026 6.53701 62.0203 6.53701V10.6842C60.8874 10.5306 59.8698 10.761 58.9675 11.3754C58.0842 11.9706 57.6426 12.9594 57.6426 14.3418V21.225H53.9274V6.82501H57.6426ZM77.6555 15.5514H66.7979C67.2779 17.3562 68.6315 18.2586 70.8587 18.2586C72.2794 18.2586 73.3547 17.7786 74.0843 16.8186L77.0795 18.5466C75.6587 20.601 73.5659 21.6282 70.8011 21.6282C68.4202 21.6282 66.5099 20.9082 65.0699 19.4682C63.6299 18.0282 62.9098 16.2138 62.9098 14.025C62.9098 11.8746 63.6203 10.0698 65.0411 8.61061C66.4427 7.15144 68.2667 6.42181 70.5131 6.42181C72.6443 6.42181 74.3819 7.15144 75.7259 8.61061C77.1083 10.0698 77.7995 11.8746 77.7995 14.025C77.7995 14.4282 77.7515 14.937 77.6555 15.5514ZM66.7403 12.6714H74.0843C73.8731 11.7306 73.4411 11.0106 72.7883 10.5114C72.1547 10.0122 71.3963 9.76261 70.5131 9.76261C69.5147 9.76261 68.6891 10.0218 68.0363 10.5402C67.3834 11.0394 66.9514 11.7498 66.7403 12.6714ZM88.3999 6.42181C89.9929 6.42181 91.2889 6.94984 92.2879 8.00581C93.3247 9.08104 93.8431 10.5402 93.8431 12.3834V21.225H90.1279V12.8442C90.1279 11.9034 89.8687 11.1738 89.3503 10.6554C88.8508 10.137 88.1596 9.87781 87.2767 9.87781C86.2975 9.87781 85.5199 10.185 84.9435 10.7994C84.3866 11.3946 84.1083 12.2778 84.1083 13.449V21.225H80.3931V6.82501H84.1083V8.43781C84.9914 7.09384 86.4217 6.42181 88.3999 6.42181ZM107.959 8.52421V6.82501H111.674V21.225H107.959V19.5258C106.845 20.9274 105.28 21.6282 103.264 21.6282C101.345 21.6282 99.6931 20.8986 98.3107 19.4394C96.9481 17.961 96.2659 16.1562 96.2659 14.025C96.2659 11.913 96.9481 10.1178 98.3107 8.63941C99.6931 7.16098 101.345 6.42181 103.264 6.42181C105.28 6.42181 106.845 7.12264 107.959 8.52421ZM101.104 16.9626C101.853 17.7114 102.804 18.0858 103.956 18.0858C105.108 18.0858 106.058 17.7114 106.807 16.9626C107.575 16.1946 107.959 15.2154 107.959 14.025C107.959 12.8346 107.575 11.865 106.807 11.1162C106.058 10.3482 105.108 9.96421 103.956 9.96421C102.804 9.96421 101.853 10.3482 101.104 11.1162C100.356 11.865 99.9811 12.8346 99.9811 14.025C99.9811 15.2154 100.356 16.1946 101.104 16.9626Z" fill="#1045FF"/>
<path d="M123.28 6.825V10.3962H120.026V16.3866C120.026 16.8858 120.15 17.2506 120.4 17.481C120.65 17.7114 121.014 17.8458 121.495 17.8842C121.974 17.9034 122.569 17.8938 123.28 17.8554V21.225C120.765 21.513 118.969 21.2826 117.895 20.5338C116.838 19.7658 116.311 18.3834 116.311 16.3866V10.3962H113.805V6.825H116.311V3.9162L120.026 2.793V6.825H123.28ZM127.742 5.097C127.128 5.097 126.59 4.87623 126.13 4.4346C125.688 3.9738 125.467 3.4362 125.467 2.8218C125.467 2.2074 125.688 1.6698 126.13 1.209C126.59 0.748203 127.128 0.517803 127.742 0.517803C128.376 0.517803 128.913 0.748203 129.355 1.209C129.816 1.6698 130.046 2.2074 130.046 2.8218C130.046 3.4362 129.816 3.9738 129.355 4.4346C128.913 4.87623 128.376 5.097 127.742 5.097ZM129.614 21.225H125.899V6.825H129.614V21.225ZM145.283 19.4394C143.825 20.8986 142.02 21.6282 139.869 21.6282C137.719 21.6282 135.914 20.8986 134.455 19.4394C132.996 17.9802 132.266 16.1754 132.266 14.025C132.266 11.8938 132.996 10.0986 134.455 8.6394C135.933 7.16097 137.738 6.4218 139.869 6.4218C142 6.4218 143.806 7.16097 145.283 8.6394C146.762 10.1178 147.501 11.913 147.501 14.025C147.501 16.1562 146.762 17.961 145.283 19.4394ZM137.075 16.8762C137.824 17.625 138.756 17.9994 139.869 17.9994C140.983 17.9994 141.914 17.625 142.663 16.8762C143.411 16.1274 143.786 15.177 143.786 14.025C143.786 12.873 143.411 11.9226 142.663 11.1738C141.914 10.425 140.983 10.0506 139.869 10.0506C138.756 10.0506 137.824 10.425 137.075 11.1738C136.346 11.9418 135.981 12.8922 135.981 14.025C135.981 15.1578 136.346 16.1082 137.075 16.8762ZM158.121 6.4218C159.715 6.4218 161.011 6.94983 162.009 8.0058C163.046 9.08103 163.564 10.5402 163.564 12.3834V21.225H159.849V12.8442C159.849 11.9034 159.59 11.1738 159.071 10.6554C158.573 10.137 157.882 9.8778 156.998 9.8778C156.019 9.8778 155.241 10.185 154.665 10.7994C154.109 11.3946 153.83 12.2778 153.83 13.449V21.225H150.115V6.825H153.83V8.4378C154.714 7.09383 156.144 6.4218 158.121 6.4218Z" fill="#070928"/>
<path fill-rule="evenodd" clip-rule="evenodd" d="M6.78758 20.0109C14.6244 24.5352 21.6847 24.4433 26.1376 21.8727C30.5903 19.3021 30.7495 15.2262 22.9125 10.7019C15.0756 6.17773 8.01536 6.26962 3.56254 8.8402C-0.890252 11.4108 -1.04938 15.4867 6.78758 20.0109ZM10.7502 17.7238C14.7806 20.0506 18.4116 20.0033 20.7016 18.6813C22.9916 17.3593 23.0734 15.2631 19.0431 12.9364C15.0126 10.6096 11.3816 10.6568 9.09158 11.9789C6.80162 13.3009 6.71972 15.3971 10.7502 17.7238Z" fill="#33B0FF"/>
<path fill-rule="evenodd" clip-rule="evenodd" d="M6.78758 17.7306C14.6244 22.2548 21.6847 22.163 26.1376 19.5923C30.5903 17.0217 30.7495 12.9458 22.9125 8.4216C15.0756 3.89735 8.01536 3.98921 3.56254 6.55977C-0.890252 9.13044 -1.04938 13.2063 6.78758 17.7306ZM10.7502 15.4432C14.7806 17.77 18.4116 17.7227 20.7016 16.4007C22.9916 15.0786 23.0734 12.9825 19.0431 10.6558C15.0126 8.32899 11.3816 8.37624 9.09158 9.69825C6.80162 11.0203 6.71972 13.1165 10.7502 15.4432Z" fill="#217DFF"/>
<path fill-rule="evenodd" clip-rule="evenodd" d="M6.78758 15.4502C14.6244 19.9745 21.6847 19.8827 26.1376 17.3121C30.5903 14.7414 30.7495 10.6656 22.9125 6.14128C15.0756 1.61703 8.01536 1.7089 3.56254 4.27945C-0.890252 6.85012 -1.04938 10.926 6.78758 15.4502ZM10.7502 13.1627C14.7806 15.4895 18.4116 15.4422 20.7016 14.1202C22.9916 12.7981 23.0734 10.702 19.0431 8.37526C15.0126 6.04849 11.3816 6.09574 9.09158 7.41775C6.80162 8.73976 6.71972 10.8359 10.7502 13.1627Z" fill="#1045FF"/>
</svg>
