<svg width="406" height="306" viewBox="0 0 406 306" fill="none" xmlns="http://www.w3.org/2000/svg">
<path d="M197.194 292.766L14.7784 184.953C8.97262 181.694 3.98897 176.345 9.65267 172.823L192.728 67.2633C195.479 65.5581 199.651 64.4416 202.442 66.0656L393.932 177.249C399.737 180.618 400.783 190.038 394.947 193.418L221.27 292.593C217.619 294.715 213.478 295.847 209.255 295.877C205.032 295.907 200.875 294.835 197.194 292.766Z" fill="#55823D"/>
<path style="mix-blend-mode:multiply" opacity="0.63" d="M265.981 239.986L237.855 254.653L249.873 262.965L277.541 246.827C275.197 245.304 268.356 241.468 265.981 239.986Z" fill="url(#paint0_linear_1424_11210)"/>
<path style="mix-blend-mode:multiply" opacity="0.63" d="M89.1677 171.27L66.3911 183.146L76.125 189.905L97.44 175.878C95.5216 174.65 91.0962 172.488 89.1677 171.27Z" fill="url(#paint1_linear_1424_11210)"/>
<path style="mix-blend-mode:multiply" opacity="0.63" d="M186.943 196.239L136.863 220.254L180.183 245.558L223.3 219.584C214.165 213.657 196.199 202.025 186.943 196.239Z" fill="url(#paint2_linear_1424_11210)"/>
<path d="M223.879 196.259C223.879 196.259 229.025 202.349 229.502 205.618C229.979 208.886 229.624 225.055 201.082 224.903C172.54 224.75 174.408 207.516 174.885 206.206C175.362 204.897 181.36 195.214 181.36 195.214" fill="#FA6C00"/>
<path d="M202.371 211.596C214.535 211.596 224.396 205.943 224.396 198.969C224.396 191.996 214.535 186.343 202.371 186.343C190.206 186.343 180.345 191.996 180.345 198.969C180.345 205.943 190.206 211.596 202.371 211.596Z" fill="#F7DD02"/>
<path d="M230.405 164.053C238.434 158.369 250.705 167.809 259.261 168.113C265.077 168.337 269.412 165.931 271.584 160.42C272.477 158.126 273.715 154.614 273.614 152.097C273.492 148.727 270.731 146.676 268.417 144.687C261.21 138.485 250.695 136.222 244.686 128.741C241.854 125.209 246.848 120.155 249.71 123.717C255.019 130.335 264.834 132.751 271.452 138.019C274.588 140.515 278.364 143.459 279.927 147.275C281.49 151.092 280.363 155.801 279.267 159.689C277.095 167.423 272.335 173.615 264.042 174.914C259.985 175.458 255.86 175.161 251.923 174.041C249.213 173.341 246.584 172.356 243.935 171.483C242.758 171.097 241.57 170.712 240.372 170.387C239.777 170.211 239.175 170.059 238.566 169.93C236.969 169.253 236.119 170.214 236.018 172.813C240.504 173.696 238.606 180.547 234.13 179.664C226.792 178.233 223.929 168.672 230.405 164.053Z" fill="#FA6C00"/>
<path d="M140.273 61.1121C144.922 62.3808 149.53 66.0551 153.468 68.684C157.772 71.5666 161.903 74.6623 165.963 77.8697C169.546 80.7117 164.491 85.7055 160.938 82.894C155.018 78.1099 148.744 73.7805 142.171 69.9426C140.537 69.0088 138.355 66.8062 136.538 68.7144C135.462 69.8411 135.594 72.4395 135.634 73.7894C135.866 77.3271 136.651 80.8067 137.959 84.1018C142.881 97.5607 153.691 107.721 163.811 117.384C167.12 120.55 162.095 125.565 158.787 122.408C145.297 109.528 129.92 94.3838 128.56 74.5913C128.083 67.6588 131.859 58.808 140.273 61.1121Z" fill="#FA6C00"/>
<path d="M207.72 175.432C207.72 175.432 206.826 183.947 209.658 189.185C211.106 191.941 212.755 194.588 214.591 197.102C214.591 197.102 215.342 205.618 202.036 205.618C188.729 205.618 190.972 197.396 190.972 197.396C193.345 194.315 195.004 190.746 195.831 186.946C196.658 183.146 196.631 179.21 195.753 175.421" fill="#FEC617"/>
<path d="M190.982 197.396C193.355 194.315 195.014 190.746 195.841 186.946C196.668 183.146 196.641 179.21 195.763 175.421H199.823C199.559 185.571 200.107 197.498 206.613 205.212C205.121 205.493 203.605 205.629 202.086 205.618C188.739 205.618 190.982 197.396 190.982 197.396Z" fill="#FFA407"/>
<path d="M249.69 91.4507V127.706C249.69 127.706 249.071 177.259 202.269 177.259C155.468 177.259 156.929 127.311 156.929 127.311V91.4507" fill="#FEC617"/>
<path d="M156.888 127.3V91.4507H183.715C183.492 114.796 184.801 140.678 199.955 159.222C205.176 165.533 211.518 170.825 218.661 174.833C213.36 176.502 207.827 177.32 202.269 177.259C155.437 177.249 156.888 127.3 156.888 127.3Z" fill="#FFA407"/>
<path d="M203.264 118.785C228.876 118.785 249.639 106.547 249.639 91.4506C249.639 76.3545 228.876 64.1167 203.264 64.1167C177.652 64.1167 156.889 76.3545 156.889 91.4506C156.889 106.547 177.652 118.785 203.264 118.785Z" fill="#F7DD02"/>
<path d="M202.229 112.359C223.592 112.359 240.91 102.675 240.91 90.7298C240.91 78.784 223.592 69.1001 202.229 69.1001C180.865 69.1001 163.547 78.784 163.547 90.7298C163.547 102.675 180.865 112.359 202.229 112.359Z" fill="#FA6C00"/>
<path d="M241.57 137.958C241.57 137.958 242.037 132.101 241.57 131.705C241.103 131.309 240.24 132.72 240.169 133.573C240.169 133.573 239.368 131.776 238.708 131.979C238.048 132.182 234.983 134.009 235.044 135.44C235.105 136.872 238.84 141.033 238.84 141.033" fill="#EEA7B7"/>
<path d="M298.745 125.981C298.745 125.981 295.7 123.454 296.015 122.591C296.329 121.728 298.045 123.778 298.045 123.778C298.045 123.778 297.314 120.541 298.177 120.206C299.039 119.871 302.237 119.444 302.582 120.064C302.927 120.683 302.034 125.981 302.034 125.981" fill="#EEA7B7"/>
<path d="M269.137 204.43C269.137 204.43 271.299 216.661 271.685 221.238C272.071 225.816 272.193 237.874 272.193 237.874C272.667 238.719 273.421 239.372 274.325 239.721C275.23 240.069 276.227 240.091 277.146 239.782C278.108 233.609 278.532 227.363 278.415 221.117C278.029 212.611 278.475 200.542 278.475 200.542L269.137 204.43Z" fill="#EEA7B7"/>
<path d="M280.14 201.558C280.14 201.558 282.302 208.419 284.586 209.678C286.87 210.936 308.245 216.945 314.589 224.05C314.589 224.05 319.035 223.126 318.781 220.284C318.781 220.284 313.706 215.666 308.114 211.606C302.521 207.546 291.559 206.024 291.011 205.13C290.463 204.237 289.58 192.585 289.58 192.585" fill="#EEA7B7"/>
<path d="M286.23 156.654C286.23 156.654 299.425 170.742 290.706 203.628C290.706 203.628 279.612 207.688 269.117 204.44C269.117 204.44 259.901 175.371 270.254 160.349" fill="white"/>
<path d="M277.389 131.563C277.389 131.198 278.232 129.188 276.77 128.366C275.309 127.544 269.269 127.503 269.269 128.853C269.269 130.203 270.284 131.807 269.269 132.416C268.254 133.025 263.981 132.781 262.388 134.263C260.794 135.745 250.949 149.762 248.249 148.656C245.549 147.549 241.966 136.76 241.966 136.76L237.51 139.927C237.51 139.927 238.373 153.822 244.889 156.776C251.405 159.729 266.661 146.321 266.661 146.321C266.661 146.321 270.721 156.41 270.244 160.338C269.767 164.266 286.666 161.983 286.21 156.654C285.712 150.889 287.316 141.774 287.316 141.774C287.316 141.774 301.455 147.803 305.891 143.124C310.326 138.445 302.47 124.803 302.47 124.803L298.288 125.91C298.288 125.91 301.485 136.242 299.76 136.973C298.034 137.704 289.082 130.944 284.027 130.7C278.973 130.457 277.389 131.563 277.389 131.563Z" fill="#1045FF"/>
<path d="M272.172 236.829C272.172 236.829 271.157 240.605 269.127 239.996C267.097 239.387 265.006 237.905 264.235 238.676C263.464 239.448 262.824 240.473 263.849 241.63C264.874 242.787 270.528 245.934 270.528 245.934L272.5 246.837C272.5 246.837 274.253 247.791 274.639 247.852C275.024 247.913 277.339 247.913 277.531 246.837C277.724 245.761 277.531 237.377 277.531 237.377L272.172 236.829Z" fill="#070928"/>
<path d="M314.589 224.05C314.589 224.05 316.416 225.258 315.513 226.862C314.609 228.465 311.92 230.272 312.102 231.104C312.285 231.937 313.199 233.612 314.417 233.134C315.635 232.657 317.695 231.653 318.142 230.759C318.588 229.866 320.503 229.774 321 229.5C321.497 229.226 322.882 227.928 323.399 227.613C323.917 227.298 325.774 225.492 325.429 225.045C325.084 224.598 318.74 220.264 318.74 220.264L316.254 218.082L312.478 222.142L314.589 224.05Z" fill="#070928"/>
<path d="M266.559 122.408C266.559 122.408 263.606 119.891 264.266 117.16C264.842 115.286 266.099 113.696 267.791 112.704C269.482 111.712 271.483 111.389 273.401 111.801C278.648 112.674 282.688 117.708 282.475 125.463C282.261 133.218 270.295 129.98 270.295 129.98" fill="#070928"/>
<path d="M266.123 117.161C266.123 117.161 265.25 129.513 267.98 130.274C270.711 131.036 272.568 127.656 272.568 127.656L273.116 125.362C273.116 125.362 275.846 122.845 273.877 122.083C273.346 121.862 272.752 121.844 272.208 122.031C271.664 122.218 271.207 122.598 270.924 123.098C270.924 123.098 270.051 120.581 268.63 121.241C267.209 121.901 266.123 117.161 266.123 117.161Z" fill="#EEA7B7"/>
<path d="M98.3942 109.03C99.0336 109.903 99.0641 113.74 98.3942 114.156C97.7243 114.572 96.963 113.821 96.963 113.821C96.963 113.821 96.5469 116.176 95.8668 116.176C95.1868 116.176 90.7411 113.994 90.9948 112.055C91.2486 110.117 93.5932 106.188 93.5932 106.188" fill="#FFBB8F"/>
<path d="M151.357 37.2901C151.357 37.2901 151.54 32.4486 152.149 32.3166C152.758 32.1847 153.093 33.9305 153.164 33.7275C153.235 33.5245 154.24 28.7641 155.194 28.6525C156.148 28.5408 155.194 32.9561 155.194 32.9561C155.194 32.9561 158.685 33.626 158.888 34.9861C159.091 36.3462 154.595 39.8885 154.595 39.8885" fill="#FFBB8F"/>
<path d="M135.3 165.657C135.3 165.657 135.513 169.646 137.665 171.148C139.816 172.651 142.618 173.087 143.755 175.351C144.081 176.045 144.204 176.819 144.108 177.58C144.013 178.342 143.704 179.061 143.217 179.654C140.467 180.016 137.674 179.486 135.249 178.142C130.945 175.878 128.895 174.589 127.393 174.265C125.891 173.94 127.312 165.048 127.312 165.048L135.3 165.657Z" fill="#341A0C"/>
<path d="M129.626 66.725C129.626 66.725 133.625 64.3296 135.482 61.65C137.34 58.9704 151.357 37.29 151.357 37.29C151.357 37.29 154.93 37.29 155.934 38.8633C156.939 40.4365 143.927 69.8715 139.918 72.8759C135.909 75.8803 139.918 108.614 137.888 111.618C135.858 114.623 120.491 117.637 116.481 110.918L113.436 92.4654C113.436 92.4654 99.9978 106.767 98.993 109.903C98.993 109.903 94.8518 109.761 93.5627 106.188C92.2737 102.615 113.01 74.165 116.583 70.7343C120.156 67.3036 129.626 66.725 129.626 66.725Z" fill="#1045FF"/>
<path d="M133.138 60.0872C133.138 60.0872 138.05 57.9659 136.731 54.789C135.411 51.612 130.783 49.1049 124.551 51.8759C118.319 54.6468 119.263 57.6918 120.186 60.8688C121.11 64.0457 122.663 66.7253 123.637 66.7253C124.612 66.7253 127.362 63.4165 127.362 63.4165" fill="#341A0C"/>
<path d="M132.762 57.1636C133.523 56.8997 133.554 69.9932 128.925 69.5974C124.297 69.2015 123.85 64.3092 123.85 64.3092C123.85 64.3092 120.673 62.4619 121.729 61.1323C122.785 59.8026 124.906 61.1323 124.906 61.1323L125.698 57.1636C125.698 57.1636 127.738 58.8891 132.762 57.1636Z" fill="#FFBB8F"/>
<path d="M137.918 111.619C137.918 111.619 146.424 132.091 145.115 138.202C143.805 144.312 135.726 168.763 135.726 168.763C135.726 168.763 127.068 167.667 127.362 165.048C127.657 162.43 132.711 139.135 131.879 136.334C130.783 132.639 127.758 122.266 127.362 124.448C126.966 126.631 123.495 137.714 120.633 141.206C117.771 144.698 96.2728 161.557 96.2728 161.557C96.2728 161.557 89.9392 156.969 90.599 155.01C91.2587 153.051 106.545 142.455 109.153 136.243C111.061 131.706 116.573 110.918 116.573 110.918" fill="#FFBB8F"/>
<path d="M96.2118 161.557C95.6028 163.357 95.0979 165.19 94.6994 167.048C94.3746 168.987 95.7144 172.651 96.7294 173.402C97.7444 174.153 97.5922 175.665 96.1915 176.629C94.7908 177.594 90.5887 177.056 89.0865 175.554C87.5843 174.051 88.7617 171.22 87.5741 168.753C86.3866 166.287 83.2604 161.577 90.6902 156.126" fill="#341A0C"/>
<path d="M178.63 119.546L182.913 132.873L193.012 139.917L185.278 145.053L186.953 157.608L178.011 147.194L168.825 148.179L170.825 137.004L163.679 124.641L173.849 128.153L178.63 119.546Z" fill="#FFAD4A"/>
<path d="M183.37 160.136L186.953 157.608L181.188 140.841L178.63 119.546L175.047 122.073L171.616 129.665L163.679 124.641L160.096 127.169" fill="#FFAD4A"/>
<path d="M175.047 122.073L179.33 135.4L189.429 142.444L181.908 147.164L183.37 160.136L174.428 149.722L165.242 150.706L167.242 139.531L160.096 127.169L170.276 130.68L175.047 122.073Z" fill="#FFE14D"/>
<path d="M217.799 125.331C217.799 125.331 220.052 137.775 207.74 137.775C207.74 137.775 217.545 140.749 217.809 147.346C217.809 147.346 220.306 138.069 227.776 138.069C227.776 138.039 217.799 137.866 217.799 125.331Z" fill="white"/>
<path d="M163.699 99.4282C163.699 99.4282 165.08 107.051 157.518 107.051C157.518 107.051 163.537 108.878 163.699 112.938C163.699 112.938 165.232 107.234 169.789 107.234C169.83 107.244 163.699 107.132 163.699 99.4282Z" fill="white"/>
<path d="M253.852 49.7139C253.852 49.7139 256.582 64.746 241.672 64.746C241.672 64.746 253.537 68.3391 253.852 76.3475C253.852 76.3475 256.897 65.1114 265.93 65.1114C265.93 65.1114 253.852 64.8983 253.852 49.7139Z" fill="#FEC617"/>
<path d="M202.158 28.896C202.158 28.896 204.411 41.35 192.099 41.35C192.099 41.35 201.904 44.324 202.168 50.9215C202.168 50.9215 204.665 41.6444 212.135 41.6444C212.135 41.6038 202.158 41.4312 202.158 28.896Z" fill="#FEC617"/>
<path style="mix-blend-mode:multiply" opacity="0.63" d="M129.362 171.92L90.9949 191.926L107.387 203.273L143.267 179.654C140.07 177.584 132.6 173.94 129.362 171.92Z" fill="url(#paint3_linear_1424_11210)"/>
<path d="M108.5 134L116.5 110.5C123.167 110.667 137.2 111.5 138 111.5C138.8 111.5 144 127.167 146.5 135C144.5 139.4 135.333 138.5 131 137.5C129.833 132.667 127.5 123.3 127.5 124.5C127.5 125.7 124.167 135.333 122.5 140C116.9 140.8 110.833 136.333 108.5 134Z" fill="white"/>
<defs>
<linearGradient id="paint0_linear_1424_11210" x1="248.766" y1="265.168" x2="262.763" y2="242.564" gradientUnits="userSpaceOnUse">
<stop stop-color="white" stop-opacity="0"/>
<stop offset="0.99" stop-color="#754C24"/>
</linearGradient>
<linearGradient id="paint1_linear_1424_11210" x1="2348.48" y1="3670.25" x2="2501.86" y2="3257.71" gradientUnits="userSpaceOnUse">
<stop stop-color="white" stop-opacity="0"/>
<stop offset="0.99" stop-color="#754C24"/>
</linearGradient>
<linearGradient id="paint2_linear_1424_11210" x1="14259" y1="11965.2" x2="15047.7" y2="9732.5" gradientUnits="userSpaceOnUse">
<stop stop-color="white" stop-opacity="0"/>
<stop offset="0.99" stop-color="#754C24"/>
</linearGradient>
<linearGradient id="paint3_linear_1424_11210" x1="5489.18" y1="6501.85" x2="5923.29" y2="5332.56" gradientUnits="userSpaceOnUse">
<stop stop-color="white" stop-opacity="0"/>
<stop offset="0.99" stop-color="#754C24"/>
</linearGradient>
</defs>
</svg>
